ModelForces
version=1
nRows=4
nColumns=157
inDegrees=no

This file contains the forces exerted on a model during a simulation.

A force is a generalized force, meaning that it can be either a force (N) or a torque (Nm).

Units are S.I. units (second, meters, Newtons, ...)
Angles are in degrees.

endheader
time	glut_med1_r	glut_med2_r	glut_med3_r	glut_min1_r	glut_min2_r	glut_min3_r	semimem_r	semiten_r	bifemlh_r	bifemsh_r	sar_r	add_long_r	add_brev_r	add_mag1_r	add_mag2_r	add_mag3_r	tfl_r	pect_r	grac_r	glut_max1_r	glut_max2_r	glut_max3_r	iliacus_r	psoas_r	quad_fem_r	gem_r	peri_r	rect_fem_r	vas_med_r	vas_int_r	vas_lat_r	med_gas_r	lat_gas_r	soleus_r	tib_post_r	flex_dig_r	flex_hal_r	tib_ant_r	per_brev_r	per_long_r	per_tert_r	ext_dig_r	ext_hal_r	glut_med1_l	glut_med2_l	glut_med3_l	glut_min1_l	glut_min2_l	glut_min3_l	semimem_l	semiten_l	bifemlh_l	bifemsh_l	sar_l	add_long_l	add_brev_l	add_mag1_l	add_mag2_l	add_mag3_l	tfl_l	pect_l	grac_l	glut_max1_l	glut_max2_l	glut_max3_l	iliacus_l	psoas_l	quad_fem_l	gem_l	peri_l	rect_fem_l	vas_med_l	vas_int_l	vas_lat_l	med_gas_l	lat_gas_l	soleus_l	tib_post_l	flex_dig_l	flex_hal_l	tib_ant_l	per_brev_l	per_long_l	per_tert_l	ext_dig_l	ext_hal_l	ercspn_r	ercspn_l	intobl_r	intobl_l	extobl_r	extobl_l	femur_lat_meniscii_r.femur_lat_r.force.X	femur_lat_meniscii_r.femur_lat_r.force.Y	femur_lat_meniscii_r.femur_lat_r.force.Z	femur_lat_meniscii_r.femur_lat_r.torque.X	femur_lat_meniscii_r.femur_lat_r.torque.Y	femur_lat_meniscii_r.femur_lat_r.torque.Z	femur_lat_meniscii_r.meniscus_lat_r.force.X	femur_lat_meniscii_r.meniscus_lat_r.force.Y	femur_lat_meniscii_r.meniscus_lat_r.force.Z	femur_lat_meniscii_r.meniscus_lat_r.torque.X	femur_lat_meniscii_r.meniscus_lat_r.torque.Y	femur_lat_meniscii_r.meniscus_lat_r.torque.Z	femur_med_meniscii_r.femur_med_r.force.X	femur_med_meniscii_r.femur_med_r.force.Y	femur_med_meniscii_r.femur_med_r.force.Z	femur_med_meniscii_r.femur_med_r.torque.X	femur_med_meniscii_r.femur_med_r.torque.Y	femur_med_meniscii_r.femur_med_r.torque.Z	femur_med_meniscii_r.meniscus_med_r.force.X	femur_med_meniscii_r.meniscus_med_r.force.Y	femur_med_meniscii_r.meniscus_med_r.force.Z	femur_med_meniscii_r.meniscus_med_r.torque.X	femur_med_meniscii_r.meniscus_med_r.torque.Y	femur_med_meniscii_r.meniscus_med_r.torque.Z	femur_med_tibia_r.tibia_upper_r.force.X	femur_med_tibia_r.tibia_upper_r.force.Y	femur_med_tibia_r.tibia_upper_r.force.Z	femur_med_tibia_r.tibia_upper_r.torque.X	femur_med_tibia_r.tibia_upper_r.torque.Y	femur_med_tibia_r.tibia_upper_r.torque.Z	femur_med_tibia_r.femur_med_r.force.X	femur_med_tibia_r.femur_med_r.force.Y	femur_med_tibia_r.femur_med_r.force.Z	femur_med_tibia_r.femur_med_r.torque.X	femur_med_tibia_r.femur_med_r.torque.Y	femur_med_tibia_r.femur_med_r.torque.Z	femur_lat_tibia_r.tibia_upper_r.force.X	femur_lat_tibia_r.tibia_upper_r.force.Y	femur_lat_tibia_r.tibia_upper_r.force.Z	femur_lat_tibia_r.tibia_upper_r.torque.X	femur_lat_tibia_r.tibia_upper_r.torque.Y	femur_lat_tibia_r.tibia_upper_r.torque.Z	femur_lat_tibia_r.femur_lat_r.force.X	femur_lat_tibia_r.femur_lat_r.force.Y	femur_lat_tibia_r.femur_lat_r.force.Z	femur_lat_tibia_r.femur_lat_r.torque.X	femur_lat_tibia_r.femur_lat_r.torque.Y	femur_lat_tibia_r.femur_lat_r.torque.Z	aACL_R	pACL_R	aPCL_R	pPCL_R	aMCL_R	mMCL_R	pMCL_R	aLCL_R	mLCL_R	pLCL_R	ground_prescribedForce_fx	ground_prescribedForce_fy	ground_prescribedForce_fz	ground_prescribedForce_px	ground_prescribedForce_py	ground_prescribedForce_pz
      0.24431952	      8.92206444	      6.60843772	      7.08735751	      3.08113298	      3.63671672	      3.77260941	      0.00000000	      3.75301077	      4.27998487	      6.06974091	      1.71820064	      6.55910173	      4.79212266	      3.40100702	      2.86947372	      4.73876943	      3.34819183	      2.59668492	      1.60115806	      4.26443220	      6.48343641	      4.85321578	     24.36180311	     14.90351762	      4.21612392	      3.13285445	      5.12431301	    244.48790794	     45.08657789	     87.77269379	     65.39716441	      0.00000000	      0.00000000	     13.26853280	     12.42417247	      2.16153144	      2.94226073	     14.82298841	      4.65074937	     11.57258439	      6.76105280	      8.61890887	      2.62606222	      8.92206444	      6.60843772	      7.08735751	      3.08113298	      3.63671672	      3.77260941	     10.71343350	      4.81910650	      9.33305689	      8.38975224	      1.75986003	      6.55910173	      4.79212266	      3.40100702	      2.86947372	      4.73876943	      4.56237827	      2.59668492	      1.80961371	      4.26443220	      6.48343641	      4.85321578	     24.36180311	     14.90351762	      4.21612392	      3.13285445	      5.12431301	     12.91799157	      7.71855689	      8.88040783	      9.54221073	     18.06158523	      8.38892061	     38.95166742	     45.53602619	      3.57871839	      3.68629203	     10.15357657	      5.33152081	     14.68177235	      2.30567361	      6.57544732	      2.06895501	     28.98700606	     28.98700606	     10.56959198	     10.56959198	     28.21539154	     28.21539154	    202.42413148	     -2.43961732	     34.54830561	    -13.90225754	      4.96644789	     82.26436321	   -202.42413148	      2.43961732	    -34.54830561	      0.02245908	     -6.77148057	     -1.06783243	     61.85059125	    -44.11007441	    -12.63649282	      4.31046580	     -1.11764936	     24.93548170	    -61.85059125	     44.11007441	     12.63649282	      0.58324075	      1.22524242	     -1.35831438	   -637.58939228	     37.88643999	    106.59251071	      0.14066342	     11.42878329	     -3.19461879	    637.58939228	    -37.88643999	   -106.59251071	     42.49824712	    -10.99237684	    258.08666508	    -38.47168640	     -6.13956011	    -11.14407025	      0.22980255	     -1.42499349	     -0.00822885	     38.47168640	      6.13956011	     11.14407025	     -4.67877028	      0.95183495	     15.62768143	     40.22337764	     11.71846745	    842.67058995	    373.80650376	     41.22256647	      2.09058034	      0.00000000	      0.00000000	      0.00000000	      0.00000000	      0.00000000	   -110.00000000	      0.00000000	      0.03000000	     -0.03000000	      0.00000000
      0.24550818	      8.90088087	      6.59395722	      7.07163423	      3.07466753	      3.62969023	      3.76367261	      0.00000000	      3.74479238	      4.27076988	      6.05769649	      1.71543838	      6.54455950	      4.78215973	      3.39360136	      2.86307537	      4.72717891	      3.34023120	      2.59119945	      1.59789990	      4.25507817	      6.46917513	      4.84235244	     24.33539311	     14.87356406	      4.20708218	      3.12854281	      5.10904400	    244.42977604	     45.04064678	     87.70986047	     65.36404094	      0.00000000	      0.00000000	     13.23340872	     12.44784412	      2.17093821	      2.92223077	     14.79407914	      4.61515731	     11.49875780	      6.76227517	      8.55721084	      2.61443012	      8.90088087	      6.59395722	      7.07163423	      3.07466753	      3.62969023	      3.76367261	     10.68353988	      4.80776610	      9.30784172	      8.37174513	      1.75618427	      6.54455950	      4.78215973	      3.39360136	      2.86307537	      4.72717891	      4.55519561	      2.59119945	      1.80576749	      4.25507817	      6.46917513	      4.84235244	     24.33539311	     14.87356406	      4.20708218	      3.12854281	      5.10904400	     12.88353555	      7.70120388	      8.86007180	      9.52043486	     18.00404901	      8.36216483	     38.83536744	     45.48796697	      3.56645960	      3.67490064	     10.12741531	      5.31643777	     14.64910273	      2.30104527	      6.55475678	      2.06257488	     28.92604060	     28.92604060	     10.54542890	     10.54542890	     28.19365024	     28.19365024	    208.62491152	     -2.55788054	     34.91487578	    -14.04596932	      5.11500999	     84.78698979	   -208.62491152	      2.55788054	    -34.91487578	      0.01846608	     -6.95613124	     -1.10411284	     63.98035672	    -45.09620567	    -12.98709359	      4.43312561	     -1.15469765	     25.78969793	    -63.98035672	     45.09620567	     12.98709359	      0.59724165	      1.26344134	     -1.38541057	   -644.57492766	     38.43101698	    107.67878492	      0.14420068	     11.55066902	     -3.23285811	    644.57492766	    -38.43101698	   -107.67878492	     42.92867250	    -11.11331929	    260.91487361	    -38.96081897	     -6.21162784	    -11.27624564	      0.23251141	     -1.44280420	     -0.00854219	     38.96081897	      6.21162784	     11.27624564	     -4.73425285	      0.96381790	     15.82646809	     39.94905631	     11.35965058	    842.06823073	    372.31991433	     40.18212366	      1.00017289	      0.00000000	      0.00000000	      0.00000000	      0.00000000	      0.00000000	   -110.00000000	      0.00000000	      0.03000000	     -0.03000000	      0.00000000
      0.24669685	      8.88002679	      6.57970068	      7.05615453	      3.06830151	      3.62277228	      3.75487474	      0.00000000	      3.73763524	      4.26329421	      6.04615281	      1.71178353	      6.53024256	      4.77234982	      3.38631027	      2.85677631	      4.71576878	      3.33046858	      2.58579846	      1.59481145	      4.24586909	      6.45513487	      4.83165773	     24.30939393	     14.84407919	      4.19817993	      3.12429877	      5.09399895	    244.46181679	     45.04367869	     87.73758013	     65.38154617	      0.00000000	      0.00000000	     13.18651357	     12.46968170	      2.18198164	      2.90358887	     14.77021962	      4.58000227	     11.42505295	      6.76630614	      8.49564771	      2.60314822	      8.88002679	      6.57970068	      7.05615453	      3.06830151	      3.62277228	      3.75487474	     10.65409970	      4.79660201	      9.28301261	      8.35401590	      1.75256501	      6.53024256	      4.77234982	      3.38631027	      2.85677631	      4.71576878	      4.54812476	      2.58579846	      1.80198053	      4.24586909	      6.45513487	      4.83165773	     24.30939393	     14.84407919	      4.19817993	      3.12429877	      5.09399895	     12.84960861	      7.68412095	      8.84005279	      9.49899885	     17.94731456	      8.33578218	     38.72077669	     45.44063886	      3.55438265	      3.66368165	     10.10165856	      5.30158248	     14.61691144	      2.29648915	      6.53436704	      2.05628961	     28.86601310	     28.86601310	     10.52164097	     10.52164097	     28.17224742	     28.17224742	    206.47671930	     -2.45841647	     34.74134971	    -13.97857621	      5.06312283	     83.91304933	   -206.47671930	      2.45841647	    -34.74134971	      0.02107986	     -6.89108994	     -1.08943495	     63.14494686	    -44.72645101	    -12.87839722	      4.39641411	     -1.14043742	     25.45484790	    -63.14494686	     44.72645101	     12.87839722	      0.59173063	      1.24933934	     -1.37535008	   -641.10161879	     38.20526093	    107.22048732	      0.14274903	     11.49069901	     -3.21435373	    641.10161879	    -38.20526093	   -107.22048732	     42.74713229	    -11.05379048	    259.50940357	    -39.16408848	     -6.24528120	    -11.33352764	      0.23375251	     -1.45038214	     -0.00849843	     39.16408848	      6.24528120	     11.33352764	     -4.75835674	      0.96884129	     15.90905155	     40.10299960	     11.52156800	    842.11244222	    372.74801420	     40.62259474	      1.44931186	      0.00000000	      0.00000000	      0.00000000	      0.00000000	      0.00000000	   -110.00000000	      0.00000000	      0.03000000	     -0.03000000	      0.00000000
      0.24828765	      8.85262424	      6.56096543	      7.03581246	      3.05993478	      3.61368084	      3.74331412	      0.00000000	      3.72701605	      4.25173056	      6.02855847	      1.70728841	      6.51142850	      4.75945655	      3.37672870	      2.84849892	      4.70077592	      3.31878052	      2.57870019	      1.59032449	      4.23376739	      6.43668452	      4.81760417	     24.27523064	     14.80533988	      4.18648049	      3.11872287	      5.07420882	    244.43996598	     45.00819355	     87.70465141	     65.36110759	      0.00000000	      0.00000000	     13.13397491	     12.49885148	      2.19960722	      2.88141162	     14.73484745	      4.53485457	     11.32858137	      6.77013367	      8.40979178	      2.58727782	      8.85262424	      6.56096543	      7.03581246	      3.05993478	      3.61368084	      3.74331412	     10.61539736	      4.78193211	      9.25037748	      8.33071609	      1.74780822	      6.51142850	      4.75945655	      3.37672870	      2.84849892	      4.70077592	      4.53883370	      2.57870019	      1.79700356	      4.23376739	      6.43668452	      4.81760417	     24.27523064	     14.80533988	      4.18648049	      3.11872287	      5.07420882	     12.80501776	      7.66167396	      8.81374857	      9.47083333	     17.87262142	      8.30104884	     38.57005022	     45.37842380	      3.53849888	      3.64893169	     10.06781023	      5.28205196	     14.57456576	      2.29050269	      6.50754311	      2.04802424	     28.78712043	     28.78712043	     10.49038220	     10.49038220	     28.14412425	     28.14412425	    208.99169531	     -2.51415261	     34.94049792	    -14.05718233	      5.12357579	     84.93663869	   -208.99169531	      2.51415261	    -34.94049792	      0.01942754	     -6.96810840	     -1.10449807	     63.92537494	    -45.00801912	    -13.02803211	      4.45129959	     -1.15426943	     25.76711712	    -63.92537494	     45.00801912	     13.02803211	      0.59565428	      1.26403863	     -1.38216613	   -642.96817716	     38.36395757	    107.49839874	      0.14396772	     11.52098272	     -3.22405827	    642.96817716	    -38.36395757	   -107.49839874	     42.85693803	    -11.08586145	    260.26529179	    -39.66376072	     -6.32213990	    -11.47120818	      0.23662477	     -1.46874085	     -0.00867460	     39.66376072	      6.32213990	     11.47120818	     -4.81619353	      0.98112720	     16.11209443	     40.02108379	     11.38970884	    841.76145421	    372.10307439	     40.26024865	      1.06165277	      0.00000000	      0.00000000	      0.00000000	      0.00000000	      0.00000000	   -110.00000000	      0.00000000	      0.03000000	     -0.03000000	      0.00000000
